<?xml version="1.0" encoding="UTF-8"?>
<svg xmlns="http://www.w3.org/2000/svg" version="1.1" viewBox="0 0 595.28 841.89">
  <defs>
    <style>
      .cls-1 {
        fill: #231f20;
      }

      .cls-1, .cls-2 {
        stroke: #231f20;
        stroke-miterlimit: 10;
      }

      .cls-2 {
        fill: none;
      }
    </style>
  </defs>
  <!-- Generator: Adobe Illustrator 28.7.1, SVG Export Plug-In . SVG Version: 1.2.0 Build 142)  -->
  <g>
    <g id="Layer_1">
      <path class="cls-2" d="M296.67,402.7c-.62-11.14.11-20.57.97-27.36.33,7.1.32,16.48-.97,27.36Z"/>
      <path class="cls-1" d="M296.67,410.5c-.59,5.02-1.45,10.35-2.68,15.94-10.67,14.03-27.54,23.07-46.52,23.07-32.29,0-58.46-26.17-58.46-58.46s24.48-56.72,55.29-58.37c-4.04-7.94-6.31-16.93-6.31-26.45,0-32.29,26.16-58.46,58.45-58.46s58.46,26.17,58.46,58.46c0,9.52-2.28,18.51-6.32,26.45,30.82,1.65,55.29,27.15,55.29,58.37s-26.17,58.46-58.46,58.46c-19.31,0-36.43-9.36-47.07-23.8-.88-5.34-1.4-10.43-1.67-15.21Z"/>
      <path class="cls-1" d="M386.18,528.7h1.05v22.67h-179.18v-22.67h1.04c13.8-7.35,54.11-31.15,75.56-80.98,4.36-10.13,7.34-19.93,9.34-29.08.86-1.12,1.68-2.27,2.45-3.46.61.93,1.24,1.84,1.9,2.73,1.48,9.07,3.96,18.84,7.92,28.95,21.19,54.08,68.64,76.8,79.92,81.84Z"/>
      <path class="cls-2" d="M298.34,417.91c-.66-.89-1.29-1.8-1.9-2.73-.77,1.19-1.59,2.34-2.45,3.46,1.23-5.59,2.09-10.92,2.68-15.94.27,4.78.79,9.87,1.67,15.21Z"/>
      <path class="cls-1" d="M298.34,417.91c-.66-.89-1.29-1.8-1.9-2.73-.77,1.19-1.59,2.34-2.45,3.46,1.23-5.59,2.09-10.92,2.68-15.94.27,4.78.79,9.87,1.67,15.21Z"/>
    </g>
  </g>
</svg>